<svg version="1.1" xmlns="http://www.w3.org/2000/svg" width="800" height="300">
<defs>
    <style>
        circle {
            animation-iteration-count: infinite;
            animation-timing-function: linear;
        }
        
        @keyframes move0 { 0% { transform: translate(324px, -25px); } 100% { transform: translate(-576px, 44px); }} #circle0 {animation-name: move0;animation-duration: 65s;animation-delay: -23.4s;} @keyframes move1 { 0% { transform: translate(57px, 61px); } 100% { transform: translate(-168px, -180px); }} #circle1 {animation-name: move1;animation-duration: 65s;animation-delay: -16.4s;} @keyframes move2 { 0% { transform: translate(-224px, 0px); } 100% { transform: translate(107px, 0px); }} #circle2 {animation-name: move2;animation-duration: 64s;animation-delay: -43.4s;} @keyframes move3 { 0% { transform: translate(3px, -2px); } 100% { transform: translate(-605px, 398px); }} #circle3 {animation-name: move3;animation-duration: 65s;animation-delay: -0.3s;} @keyframes move4 { 0% { transform: translate(-215px, 0px); } 100% { transform: translate(359px, 0px); }} #circle4 {animation-name: move4;animation-duration: 58s;animation-delay: -21.7s;} @keyframes move5 { 0% { transform: translate(327px, 50px); } 100% { transform: translate(-422px, -65px); }} #circle5 {animation-name: move5;animation-duration: 61s;animation-delay: -26.6s;} @keyframes move6 { 0% { transform: translate(-423px, -352px); } 100% { transform: translate(57px, 48px); }} #circle6 {animation-name: move6;animation-duration: 68s;animation-delay: -59.9s;} @keyframes move7 { 0% { transform: translate(7px, 40px); } 100% { transform: translate(-49px, -269px); }} #circle7 {animation-name: move7;animation-duration: 50s;animation-delay: -6.4s;} @keyframes move8 { 0% { transform: translate(17px, 0px); } 100% { transform: translate(-132px, 0px); }} #circle8 {animation-name: move8;animation-duration: 54s;animation-delay: -6.2s;} @keyframes move9 { 0% { transform: translate(-698px, 336px); } 100% { transform: translate(27px, -13px); }} #circle9 {animation-name: move9;animation-duration: 51s;animation-delay: -49.1s;} @keyframes move10 { 0% { transform: translate(3px, 82px); } 100% { transform: translate(-8px, -192px); }} #circle10 {animation-name: move10;animation-duration: 67s;animation-delay: -20.1s;} @keyframes move11 { 0% { transform: translate(-16px, 365px); } 100% { transform: translate(2px, -35px); }} #circle11 {animation-name: move11;animation-duration: 51s;animation-delay: -46.5s;} @keyframes move12 { 0% { transform: translate(-47px, 167px); } 100% { transform: translate(65px, -233px); }} #circle12 {animation-name: move12;animation-duration: 56s;animation-delay: -23.4s;} @keyframes move13 { 0% { transform: translate(342px, 159px); } 100% { transform: translate(-134px, -63px); }} #circle13 {animation-name: move13;animation-duration: 50s;animation-delay: -35.9s;} @keyframes move14 { 0% { transform: translate(-2px, 0px); } 100% { transform: translate(343px, 0px); }} #circle14 {animation-name: move14;animation-duration: 62s;animation-delay: -0.4s;} @keyframes move15 { 0% { transform: translate(-64px, 162px); } 100% { transform: translate(46px, -117px); }} #circle15 {animation-name: move15;animation-duration: 58s;animation-delay: -33.6s;} @keyframes move16 { 0% { transform: translate(-185px, 210px); } 100% { transform: translate(168px, -190px); }} #circle16 {animation-name: move16;animation-duration: 59s;animation-delay: -31s;} @keyframes move17 { 0% { transform: translate(-70px, 0px); } 100% { transform: translate(41px, 0px); }} #circle17 {animation-name: move17;animation-duration: 60s;animation-delay: -38.1s;} @keyframes move18 { 0% { transform: translate(35px, -53px); } 100% { transform: translate(-43px, 65px); }} #circle18 {animation-name: move18;animation-duration: 54s;animation-delay: -24.3s;} @keyframes move19 { 0% { transform: translate(-201px, -310px); } 100% { transform: translate(59px, 90px); }} #circle19 {animation-name: move19;animation-duration: 65s;animation-delay: -50.3s;} @keyframes move20 { 0% { transform: translate(-702px, 110px); } 100% { transform: translate(150px, -24px); }} #circle20 {animation-name: move20;animation-duration: 63s;animation-delay: -51.9s;} @keyframes move21 { 0% { transform: translate(64px, 173px); } 100% { transform: translate(-74px, -198px); }} #circle21 {animation-name: move21;animation-duration: 52s;animation-delay: -24.2s;} @keyframes move22 { 0% { transform: translate(139px, 287px); } 100% { transform: translate(-36px, -73px); }} #circle22 {animation-name: move22;animation-duration: 67s;animation-delay: -53.4s;} @keyframes move23 { 0% { transform: translate(87px, 0px); } 100% { transform: translate(-486px, 0px); }} #circle23 {animation-name: move23;animation-duration: 68s;animation-delay: -10.3s;} @keyframes move24 { 0% { transform: translate(228px, -169px); } 100% { transform: translate(-119px, 87px); }} #circle24 {animation-name: move24;animation-duration: 67s;animation-delay: -44.1s;} @keyframes move25 { 0% { transform: translate(-393px, -84px); } 100% { transform: translate(313px, 67px); }} #circle25 {animation-name: move25;animation-duration: 69s;animation-delay: -38.4s;} @keyframes move26 { 0% { transform: translate(-19px, -1px); } 100% { transform: translate(881px, 58px); }} #circle26 {animation-name: move26;animation-duration: 53s;animation-delay: -1.1s;} @keyframes move27 { 0% { transform: translate(76px, 0px); } 100% { transform: translate(-328px, 0px); }} #circle27 {animation-name: move27;animation-duration: 59s;animation-delay: -11.1s;} @keyframes move28 { 0% { transform: translate(37px, 397px); } 100% { transform: translate(0px, -3px); }} #circle28 {animation-name: move28;animation-duration: 60s;animation-delay: -59.5s;} @keyframes move29 { 0% { transform: translate(-59px, -59px); } 100% { transform: translate(337px, 341px); }} #circle29 {animation-name: move29;animation-duration: 60s;animation-delay: -8.9s;} @keyframes move30 { 0% { transform: translate(595px, 300px); } 100% { transform: translate(-199px, -100px); }} #circle30 {animation-name: move30;animation-duration: 54s;animation-delay: -40.5s;} @keyframes move31 { 0% { transform: translate(-78px, -282px); } 100% { transform: translate(33px, 118px); }} #circle31 {animation-name: move31;animation-duration: 54s;animation-delay: -38.1s;} @keyframes move32 { 0% { transform: translate(121px, -172px); } 100% { transform: translate(-161px, 228px); }} #circle32 {animation-name: move32;animation-duration: 58s;animation-delay: -24.9s;} @keyframes move33 { 0% { transform: translate(-28px, 47px); } 100% { transform: translate(208px, -353px); }} #circle33 {animation-name: move33;animation-duration: 64s;animation-delay: -7.5s;} @keyframes move34 { 0% { transform: translate(-83px, 4px); } 100% { transform: translate(324px, -16px); }} #circle34 {animation-name: move34;animation-duration: 63s;animation-delay: -12.8s;} @keyframes move35 { 0% { transform: translate(719px, 21px); } 100% { transform: translate(-117px, -4px); }} #circle35 {animation-name: move35;animation-duration: 70s;animation-delay: -60.2s;} @keyframes move36 { 0% { transform: translate(-521px, -105px); } 100% { transform: translate(280px, 56px); }} #circle36 {animation-name: move36;animation-duration: 65s;animation-delay: -42.3s;} @keyframes move37 { 0% { transform: translate(53px, -78px); } 100% { transform: translate(-221px, 322px); }} #circle37 {animation-name: move37;animation-duration: 63s;animation-delay: -12.3s;} @keyframes move38 { 0% { transform: translate(-590px, 0px); } 100% { transform: translate(100px, 0px); }} #circle38 {animation-name: move38;animation-duration: 51s;animation-delay: -43.6s;} @keyframes move39 { 0% { transform: translate(-235px, 0px); } 100% { transform: translate(86px, 0px); }} #circle39 {animation-name: move39;animation-duration: 64s;animation-delay: -46.8s;} @keyframes move40 { 0% { transform: translate(161px, 270px); } 100% { transform: translate(-77px, -130px); }} #circle40 {animation-name: move40;animation-duration: 70s;animation-delay: -47.3s;} @keyframes move41 { 0% { transform: translate(3px, 7px); } 100% { transform: translate(-165px, -393px); }} #circle41 {animation-name: move41;animation-duration: 60s;animation-delay: -1s;} @keyframes move42 { 0% { transform: translate(37px, 44px); } 100% { transform: translate(-273px, -320px); }} #circle42 {animation-name: move42;animation-duration: 51s;animation-delay: -6.1s;} @keyframes move43 { 0% { transform: translate(-268px, 90px); } 100% { transform: translate(511px, -171px); }} #circle43 {animation-name: move43;animation-duration: 53s;animation-delay: -18.2s;} @keyframes move44 { 0% { transform: translate(0px, -69px); } 100% { transform: translate(0px, 256px); }} #circle44 {animation-name: move44;animation-duration: 66s;animation-delay: -14s;} @keyframes move45 { 0% { transform: translate(57px, 156px); } 100% { transform: translate(-90px, -244px); }} #circle45 {animation-name: move45;animation-duration: 50s;animation-delay: -19.5s;} @keyframes move46 { 0% { transform: translate(-8px, 0px); } 100% { transform: translate(589px, 0px); }} #circle46 {animation-name: move46;animation-duration: 67s;animation-delay: -0.9s;} @keyframes move47 { 0% { transform: translate(36px, 0px); } 100% { transform: translate(-292px, 0px); }} #circle47 {animation-name: move47;animation-duration: 66s;animation-delay: -7.2s;} @keyframes move48 { 0% { transform: translate(-151px, 375px); } 100% { transform: translate(10px, -25px); }} #circle48 {animation-name: move48;animation-duration: 66s;animation-delay: -61.9s;} @keyframes move49 { 0% { transform: translate(-178px, 163px); } 100% { transform: translate(259px, -237px); }} #circle49 {animation-name: move49;animation-duration: 68s;animation-delay: -27.7s;} @keyframes move50 { 0% { transform: translate(0px, 78px); } 100% { transform: translate(0px, -33px); }} #circle50 {animation-name: move50;animation-duration: 54s;animation-delay: -38.1s;} @keyframes move51 { 0% { transform: translate(226px, 0px); } 100% { transform: translate(-48px, 0px); }} #circle51 {animation-name: move51;animation-duration: 69s;animation-delay: -56.8s;} @keyframes move52 { 0% { transform: translate(21px, 44px); } 100% { transform: translate(-84px, -170px); }} #circle52 {animation-name: move52;animation-duration: 63s;animation-delay: -12.9s;} @keyframes move53 { 0% { transform: translate(-196px, 138px); } 100% { transform: translate(331px, -232px); }} #circle53 {animation-name: move53;animation-duration: 55s;animation-delay: -20.5s;} @keyframes move54 { 0% { transform: translate(-16px, 9px); } 100% { transform: translate(286px, -157px); }} #circle54 {animation-name: move54;animation-duration: 57s;animation-delay: -3s;} @keyframes move55 { 0% { transform: translate(132px, 266px); } 100% { transform: translate(-67px, -134px); }} #circle55 {animation-name: move55;animation-duration: 58s;animation-delay: -38.6s;} @keyframes move56 { 0% { transform: translate(-326px, -70px); } 100% { transform: translate(488px, 104px); }} #circle56 {animation-name: move56;animation-duration: 62s;animation-delay: -24.8s;} @keyframes move57 { 0% { transform: translate(268px, 0px); } 100% { transform: translate(-102px, 0px); }} #circle57 {animation-name: move57;animation-duration: 60s;animation-delay: -43.5s;} @keyframes move58 { 0% { transform: translate(302px, 256px); } 100% { transform: translate(-170px, -144px); }} #circle58 {animation-name: move58;animation-duration: 50s;animation-delay: -32s;} @keyframes move59 { 0% { transform: translate(-63px, -115px); } 100% { transform: translate(113px, 208px); }} #circle59 {animation-name: move59;animation-duration: 70s;animation-delay: -24.9s;} @keyframes move60 { 0% { transform: translate(28px, 23px); } 100% { transform: translate(-460px, -377px); }} #circle60 {animation-name: move60;animation-duration: 62s;animation-delay: -3.6s;} @keyframes move61 { 0% { transform: translate(-123px, 138px); } 100% { transform: translate(233px, -262px); }} #circle61 {animation-name: move61;animation-duration: 68s;animation-delay: -23.4s;} @keyframes move62 { 0% { transform: translate(272px, 267px); } 100% { transform: translate(-136px, -133px); }} #circle62 {animation-name: move62;animation-duration: 62s;animation-delay: -41.4s;} @keyframes move63 { 0% { transform: translate(-88px, 0px); } 100% { transform: translate(13px, 0px); }} #circle63 {animation-name: move63;animation-duration: 63s;animation-delay: -55.1s;} @keyframes move64 { 0% { transform: translate(-172px, -3px); } 100% { transform: translate(634px, 11px); }} #circle64 {animation-name: move64;animation-duration: 54s;animation-delay: -11.5s;} @keyframes move65 { 0% { transform: translate(383px, 178px); } 100% { transform: translate(-174px, -81px); }} #circle65 {animation-name: move65;animation-duration: 65s;animation-delay: -44.7s;} @keyframes move66 { 0% { transform: translate(2px, -15px); } 100% { transform: translate(-34px, 303px); }} #circle66 {animation-name: move66;animation-duration: 63s;animation-delay: -2.9s;} @keyframes move67 { 0% { transform: translate(-64px, 262px); } 100% { transform: translate(34px, -138px); }} #circle67 {animation-name: move67;animation-duration: 50s;animation-delay: -32.8s;} @keyframes move68 { 0% { transform: translate(96px, 82px); } 100% { transform: translate(-83px, -70px); }} #circle68 {animation-name: move68;animation-duration: 69s;animation-delay: -37.1s;} @keyframes move69 { 0% { transform: translate(-231px, -145px); } 100% { transform: translate(286px, 179px); }} #circle69 {animation-name: move69;animation-duration: 63s;animation-delay: -28.1s;} 
    </style>

    <clipPath id="outer">
        <rect fill="none" width="800" height="300" rx="15" />
    </clipPath>
</defs>

<svg clip-path="url(#outer)">
    <rect x="0" y="0" width="800" height="300" fill="#22282d" />
    <circle id="circle0" cx="526" cy="241" r="22" fill="#272d35" /><circle id="circle1" cx="118" cy="289" r="50" fill="#292f38" /><circle id="circle2" cx="499" cy="-50" r="26" fill="#292f38" /><circle id="circle3" cx="708" cy="-48" r="34" fill="#272d35" /><circle id="circle4" cx="441" cy="350" r="39" fill="#292f38" /><circle id="circle5" cx="372" cy="300" r="12" fill="#2b313b" /><circle id="circle6" cx="710" cy="302" r="29" fill="#2b313b" /><circle id="circle7" cx="843" cy="219" r="38" fill="#252b32" /><circle id="circle8" cx="703" cy="-50" r="20" fill="#2b313b" /><circle id="circle9" cx="823" cy="14" r="32" fill="#252b32" /><circle id="circle10" cx="847" cy="142" r="17" fill="#252b32" /><circle id="circle11" cx="37" cy="-15" r="18" fill="#272d35" /><circle id="circle12" cx="380" cy="183" r="49" fill="#292f38" /><circle id="circle13" cx="84" cy="191" r="27" fill="#292f38" /><circle id="circle14" cx="7" cy="-50" r="16" fill="#272d35" /><circle id="circle15" cx="804" cy="188" r="45" fill="#292f38" /><circle id="circle16" cx="207" cy="140" r="10" fill="#252b32" /><circle id="circle17" cx="277" cy="350" r="41" fill="#292f38" /><circle id="circle18" cx="-7" cy="3" r="12" fill="#2b313b" /><circle id="circle19" cx="788" cy="260" r="12" fill="#272d35" /><circle id="circle20" cx="700" cy="240" r="31" fill="#252b32" /><circle id="circle21" cx="24" cy="177" r="34" fill="#252b32" /><circle id="circle22" cx="711" cy="23" r="45" fill="#2b313b" /><circle id="circle23" cx="457" cy="350" r="34" fill="#2b313b" /><circle id="circle24" cx="69" cy="119" r="13" fill="#2b313b" /><circle id="circle25" cx="343" cy="283" r="32" fill="#272d35" /><circle id="circle26" cx="-31" cy="64" r="23" fill="#252b32" /><circle id="circle27" cx="576" cy="-50" r="18" fill="#2b313b" /><circle id="circle28" cx="668" cy="-47" r="33" fill="#272d35" /><circle id="circle29" cx="34" cy="9" r="18" fill="#292f38" /><circle id="circle30" cx="244" cy="50" r="48" fill="#2b313b" /><circle id="circle31" cx="574" cy="232" r="48" fill="#252b32" /><circle id="circle32" cx="599" cy="122" r="42" fill="#292f38" /><circle id="circle33" cx="642" cy="303" r="33" fill="#252b32" /><circle id="circle34" cx="526" cy="346" r="49" fill="#252b32" /><circle id="circle35" cx="131" cy="-46" r="18" fill="#272d35" /><circle id="circle36" cx="570" cy="55" r="13" fill="#252b32" /><circle id="circle37" cx="462" cy="28" r="19" fill="#272d35" /><circle id="circle38" cx="641" cy="-50" r="31" fill="#272d35" /><circle id="circle39" cx="488" cy="350" r="14" fill="#2b313b" /><circle id="circle40" cx="651" cy="80" r="35" fill="#272d35" /><circle id="circle41" cx="387" cy="343" r="40" fill="#272d35" /><circle id="circle42" cx="223" cy="306" r="25" fill="#272d35" /><circle id="circle43" cx="218" cy="121" r="20" fill="#252b32" /><circle id="circle44" cx="-50" cy="23" r="42" fill="#292f38" /><circle id="circle45" cx="168" cy="194" r="21" fill="#272d35" /><circle id="circle46" cx="28" cy="-50" r="32" fill="#2b313b" /><circle id="circle47" cx="342" cy="350" r="20" fill="#2b313b" /><circle id="circle48" cx="510" cy="-25" r="34" fill="#2b313b" /><circle id="circle49" cx="220" cy="187" r="49" fill="#252b32" /><circle id="circle50" cx="-50" cy="142" r="50" fill="#272d35" /><circle id="circle51" cx="29" cy="-50" r="49" fill="#2b313b" /><circle id="circle52" cx="34" cy="306" r="35" fill="#2b313b" /><circle id="circle53" cx="146" cy="182" r="50" fill="#252b32" /><circle id="circle54" cx="564" cy="341" r="28" fill="#292f38" /><circle id="circle55" cx="513" cy="84" r="26" fill="#272d35" /><circle id="circle56" cx="362" cy="20" r="24" fill="#292f38" /><circle id="circle57" cx="247" cy="350" r="20" fill="#2b313b" /><circle id="circle58" cx="189" cy="94" r="25" fill="#292f38" /><circle id="circle59" cx="737" cy="65" r="29" fill="#272d35" /><circle id="circle60" cx="461" cy="327" r="28" fill="#252b32" /><circle id="circle61" cx="497" cy="212" r="13" fill="#272d35" /><circle id="circle62" cx="265" cy="83" r="35" fill="#252b32" /><circle id="circle63" cx="430" cy="-50" r="16" fill="#292f38" /><circle id="circle64" cx="216" cy="-47" r="45" fill="#252b32" /><circle id="circle65" cx="467" cy="31" r="14" fill="#2b313b" /><circle id="circle66" cx="-16" cy="-35" r="21" fill="#272d35" /><circle id="circle67" cx="287" cy="88" r="23" fill="#2b313b" /><circle id="circle68" cx="754" cy="20" r="46" fill="#292f38" /><circle id="circle69" cx="564" cy="95" r="16" fill="#252b32" />

    <svg x="75.98" y="111.108" width="648.04" height="77.784" viewBox="0 0 648.04 77.784" xmlns="http://www.w3.org/2000/svg"><g id="svgGroup" stroke-linecap="round" fill-rule="nonzero" font-size="9pt" stroke="#00000000" stroke-width="0.25mm" fill="#ffc815" style="stroke:#00000000;stroke-width:0.25mm;fill:#ffc815"><path d="M 529.517 60.511 L 521.023 60.511 L 521.023 16.875 L 529.176 16.875 L 529.176 23.977 L 529.716 23.977 A 13.415 13.415 0 0 1 529.87 23.587 Q 531.242 20.275 534.147 18.357 A 12.106 12.106 0 0 1 534.176 18.338 Q 537.273 16.307 541.591 16.307 A 18.436 18.436 0 0 1 541.863 16.309 Q 545.499 16.362 548.144 17.858 A 10.507 10.507 0 0 1 548.935 18.352 A 11.976 11.976 0 0 1 549.433 18.715 Q 552.025 20.705 553.324 23.977 L 553.778 23.977 Q 555.341 20.483 558.75 18.395 A 13.036 13.036 0 0 1 559.735 17.849 Q 562.8 16.318 566.817 16.307 A 21.257 21.257 0 0 1 566.875 16.307 Q 572.813 16.307 576.577 20.028 A 10.549 10.549 0 0 1 577.302 20.823 Q 580.312 24.476 580.341 31.121 A 29.701 29.701 0 0 1 580.341 31.25 L 580.341 60.511 L 571.847 60.511 L 571.847 32.045 Q 571.847 27.614 569.432 25.625 A 9.027 9.027 0 0 0 569.088 25.355 Q 566.904 23.728 563.994 23.641 A 11.073 11.073 0 0 0 563.665 23.636 Q 559.656 23.636 557.372 26.012 A 7.579 7.579 0 0 0 557.216 26.179 A 8.683 8.683 0 0 0 556.87 26.585 Q 554.944 28.996 554.915 32.591 A 13.651 13.651 0 0 0 554.915 32.699 L 554.915 60.511 L 546.449 60.511 L 546.449 31.506 A 11.1 11.1 0 0 0 546.445 31.203 Q 546.355 27.898 544.278 25.84 A 7.494 7.494 0 0 0 544.233 25.795 A 7.585 7.585 0 0 0 543.897 25.487 Q 541.855 23.724 538.774 23.641 A 11.399 11.399 0 0 0 538.466 23.636 A 9.046 9.046 0 0 0 538.054 23.646 Q 536.02 23.738 534.265 24.753 A 8.862 8.862 0 0 0 534.02 24.901 A 9.027 9.027 0 0 0 533.405 25.32 Q 531.796 26.515 530.753 28.409 A 9.265 9.265 0 0 0 530.397 29.128 Q 529.538 31.068 529.518 33.491 A 14.031 14.031 0 0 0 529.517 33.608 L 529.517 60.511 Z M 306.506 20.71 L 297.5 20.71 A 21.178 21.178 0 0 0 297.395 20.389 Q 296.59 17.996 295.298 16.065 A 15.759 15.759 0 0 0 294.968 15.591 Q 293.697 13.834 292.017 12.543 A 13.255 13.255 0 0 0 290.969 11.814 Q 289.534 10.917 287.839 10.362 A 15.703 15.703 0 0 0 287.685 10.313 A 15.056 15.056 0 0 0 287.225 10.175 Q 284.984 9.545 282.358 9.545 A 18.849 18.849 0 0 0 281.899 9.551 Q 277.258 9.664 273.494 12.074 Q 269.545 14.602 267.259 19.474 Q 265.037 24.208 264.973 30.992 A 42.842 42.842 0 0 0 264.972 31.392 Q 264.972 38.126 267.057 42.878 A 19.624 19.624 0 0 0 267.273 43.352 Q 269.094 47.219 271.982 49.609 A 15.379 15.379 0 0 0 273.58 50.767 Q 277.403 53.181 282.236 53.29 A 20.385 20.385 0 0 0 282.699 53.295 A 22.892 22.892 0 0 0 283.141 53.291 Q 287.609 53.205 290.98 51.364 A 14.751 14.751 0 0 0 291.416 51.116 Q 294.639 49.211 296.463 45.895 A 14.199 14.199 0 0 0 296.852 45.135 Q 298.342 41.993 298.406 37.925 A 23.334 23.334 0 0 0 298.409 37.557 L 300.682 37.983 L 284.034 37.983 L 284.034 30.739 L 306.903 30.739 L 306.903 37.358 A 34.112 34.112 0 0 1 306.9 37.814 Q 306.806 44.856 303.793 50.071 Q 300.786 55.275 295.576 58.182 A 23.292 23.292 0 0 1 295.213 58.381 Q 289.744 61.307 282.699 61.307 A 33.913 33.913 0 0 1 282.207 61.303 Q 274.615 61.193 268.849 57.67 A 24.269 24.269 0 0 1 268.116 57.204 Q 262.765 53.666 259.661 47.517 A 29.96 29.96 0 0 1 259.574 47.344 Q 256.284 40.722 256.25 31.638 A 50.777 50.777 0 0 1 256.25 31.449 Q 256.25 24.545 258.151 19.038 A 30.059 30.059 0 0 1 258.182 18.949 Q 260.114 13.409 263.622 9.531 A 25.254 25.254 0 0 1 264.066 9.054 Q 267.428 5.525 271.889 3.594 Q 276.648 1.534 282.301 1.534 A 31.553 31.553 0 0 1 282.888 1.54 Q 286.984 1.616 290.589 2.76 A 24.443 24.443 0 0 1 291.094 2.926 Q 294.193 3.984 296.783 5.716 A 22.946 22.946 0 0 1 298.366 6.875 Q 301.443 9.336 303.506 12.679 A 23.36 23.36 0 0 1 303.665 12.94 Q 305.765 16.445 306.504 20.7 A 29.575 29.575 0 0 1 306.506 20.71 Z M 491.648 38.239 A 43.745 43.745 0 0 0 491.646 37.892 Q 491.603 32.455 490.202 28.533 A 19.057 19.057 0 0 0 490.057 28.139 A 23.842 23.842 0 0 0 489.918 27.784 Q 488.347 23.865 485.71 21.364 Q 482.955 18.75 479.489 17.528 Q 476.023 16.307 472.33 16.307 A 25.417 25.417 0 0 0 471.898 16.31 Q 466.088 16.409 461.719 19.176 Q 457.4 21.911 454.913 26.685 A 22.876 22.876 0 0 0 454.673 27.159 A 22.039 22.039 0 0 0 454.456 27.614 Q 452.234 32.407 452.162 38.56 A 35.364 35.364 0 0 0 452.159 38.977 Q 452.159 45.343 454.369 50.173 A 21.124 21.124 0 0 0 454.673 50.81 A 21.673 21.673 0 0 0 454.681 50.826 Q 457.195 55.857 461.832 58.622 A 17.733 17.733 0 0 0 462.128 58.794 Q 466.681 61.392 472.926 61.392 Q 477.699 61.392 481.435 59.929 A 20.244 20.244 0 0 0 481.844 59.764 Q 485.308 58.319 487.656 55.81 Q 489.948 53.361 490.948 50.152 A 15.694 15.694 0 0 0 491.108 49.602 L 483.068 48.153 Q 482.535 49.576 481.672 50.682 A 8.558 8.558 0 0 1 480.852 51.591 A 9.605 9.605 0 0 1 480.844 51.599 Q 479.397 52.985 477.415 53.679 A 11.19 11.19 0 0 1 477.237 53.739 Q 475.319 54.375 473.011 54.375 A 17.22 17.22 0 0 1 472.955 54.375 Q 469.878 54.365 467.444 53.253 A 11.165 11.165 0 0 1 466.506 52.77 A 10.903 10.903 0 0 1 466.323 52.662 Q 463.836 51.163 462.365 48.463 A 13.145 13.145 0 0 1 462.173 48.097 A 12.089 12.089 0 0 1 462.048 47.841 Q 460.625 44.848 460.625 40.653 L 460.625 35.682 A 14.791 14.791 0 0 1 460.626 35.497 Q 460.666 32.335 462.06 29.616 Q 463.382 27.037 465.743 25.35 A 12.843 12.843 0 0 1 466.151 25.071 A 10.157 10.157 0 0 1 467.632 24.264 Q 469.761 23.324 472.386 23.324 A 14.335 14.335 0 0 1 472.496 23.324 Q 474.954 23.343 476.943 24.207 A 9.646 9.646 0 0 1 478.139 24.83 Q 480.597 26.335 481.96 28.935 A 11.109 11.109 0 0 1 482.272 29.579 Q 483.254 31.785 483.319 34.496 A 16.163 16.163 0 0 1 483.324 34.886 L 456.96 34.886 L 456.96 41.25 L 491.648 41.25 L 491.648 38.239 Z M 364.659 67.898 L 371.96 64.886 Q 372.681 66.061 373.866 67.374 A 25.381 25.381 0 0 0 374.02 67.543 A 7.706 7.706 0 0 0 374.249 67.781 Q 375.504 69.034 377.543 69.943 A 8.534 8.534 0 0 0 377.79 70.049 Q 379.932 70.924 383.194 70.937 A 24.761 24.761 0 0 0 383.295 70.938 Q 387.731 70.938 390.753 68.96 A 10.716 10.716 0 0 0 391.278 68.594 A 7.388 7.388 0 0 0 391.637 68.31 Q 394.354 66.016 394.43 61.404 A 16.235 16.235 0 0 0 394.432 61.136 L 394.432 52.557 L 393.892 52.557 A 12.061 12.061 0 0 1 393.794 52.732 Q 393.075 53.987 391.828 55.489 A 31.373 31.373 0 0 1 391.69 55.653 A 9.128 9.128 0 0 1 391.46 55.917 Q 390.13 57.379 387.983 58.492 A 17.374 17.374 0 0 1 387.756 58.608 Q 385.256 59.858 381.25 59.858 A 21.707 21.707 0 0 1 380.768 59.853 Q 376.35 59.754 372.703 57.849 A 17.402 17.402 0 0 1 371.946 57.429 Q 367.874 55.036 365.483 50.382 A 21.761 21.761 0 0 1 365.412 50.241 A 18.34 18.34 0 0 1 365.192 49.791 Q 363.011 45.157 363.011 38.523 A 40.304 40.304 0 0 1 363.014 38.09 Q 363.082 31.74 365.16 27.075 A 20.459 20.459 0 0 1 365.384 26.591 A 23.084 23.084 0 0 1 365.534 26.282 Q 367.872 21.563 371.858 18.992 A 16.624 16.624 0 0 1 371.903 18.963 Q 375.982 16.351 381.133 16.308 A 20.686 20.686 0 0 1 381.307 16.307 A 24.02 24.02 0 0 1 381.559 16.308 Q 385.225 16.347 387.588 17.511 A 8.551 8.551 0 0 1 387.869 17.656 A 17.386 17.386 0 0 1 388.159 17.816 Q 390.282 19.015 391.574 20.548 A 9.297 9.297 0 0 1 391.776 20.795 Q 393.182 22.585 393.949 23.949 L 394.574 23.949 L 394.574 16.875 L 402.898 16.875 L 402.898 61.477 A 23.809 23.809 0 0 1 402.895 61.827 Q 402.816 67.215 400.284 70.71 A 15.198 15.198 0 0 1 399.865 71.263 Q 397.323 74.454 393.224 76.051 A 22.711 22.711 0 0 1 392.664 76.261 Q 388.43 77.784 383.21 77.784 A 39.124 39.124 0 0 1 382.887 77.783 Q 378.088 77.743 374.558 76.521 A 17.973 17.973 0 0 1 374.276 76.42 Q 370.78 75.144 368.49 73.097 A 13.507 13.507 0 0 1 368.182 72.813 A 18.431 18.431 0 0 1 367.892 72.53 Q 366.013 70.661 364.942 68.504 A 13.513 13.513 0 0 1 364.659 67.898 Z M 388.573 51.555 A 9.195 9.195 0 0 0 389.332 51.094 A 9.664 9.664 0 0 0 390.732 49.943 Q 392.167 48.518 393.073 46.441 A 14.019 14.019 0 0 0 393.196 46.151 A 14.445 14.445 0 0 0 393.351 45.755 Q 394.499 42.7 394.517 38.54 A 30.686 30.686 0 0 0 394.517 38.409 A 29.18 29.18 0 0 0 394.514 37.999 Q 394.46 34.121 393.369 31.077 A 16.408 16.408 0 0 0 393.21 30.653 A 15.235 15.235 0 0 0 393.085 30.342 Q 392.063 27.883 390.356 26.244 A 10.434 10.434 0 0 0 389.375 25.412 A 8.885 8.885 0 0 0 387.948 24.542 Q 385.858 23.523 383.125 23.523 A 14.668 14.668 0 0 0 382.887 23.525 Q 380.029 23.571 377.897 24.737 A 8.826 8.826 0 0 0 376.733 25.497 Q 374.221 27.437 372.929 30.734 A 15.474 15.474 0 0 0 372.884 30.852 A 17.769 17.769 0 0 0 372.655 31.486 Q 371.643 34.468 371.593 38.041 A 26.647 26.647 0 0 0 371.591 38.409 A 27.681 27.681 0 0 0 371.594 38.809 Q 371.648 42.587 372.74 45.53 A 15.4 15.4 0 0 0 372.898 45.938 A 14.039 14.039 0 0 0 373.044 46.287 Q 374.318 49.212 376.673 50.921 A 10.475 10.475 0 0 0 376.776 50.994 Q 379.347 52.813 383.125 52.813 Q 386.259 52.813 388.573 51.555 Z M 620.114 34.602 L 620.114 60.511 L 611.619 60.511 L 611.619 16.875 L 619.773 16.875 L 619.773 23.977 L 620.313 23.977 Q 621.786 20.586 624.904 18.5 A 14.157 14.157 0 0 1 625.043 18.409 A 11.156 11.156 0 0 1 625.609 18.063 Q 628.689 16.307 633.182 16.307 A 21.015 21.015 0 0 1 633.598 16.311 Q 637.799 16.394 640.994 18.168 Q 644.347 20.028 646.193 23.693 Q 647.987 27.253 648.038 32.448 A 31.125 31.125 0 0 1 648.04 32.756 L 648.04 60.511 L 639.545 60.511 L 639.545 33.778 A 17.848 17.848 0 0 0 639.543 33.484 Q 639.468 28.95 637.074 26.349 A 8.239 8.239 0 0 0 636.758 26.024 Q 634.42 23.75 630.575 23.668 A 13.593 13.593 0 0 0 630.284 23.665 Q 627.587 23.665 625.446 24.73 A 9.513 9.513 0 0 0 625.043 24.943 A 9.013 9.013 0 0 0 624.554 25.237 Q 622.611 26.49 621.435 28.679 A 9.623 9.623 0 0 0 621.201 29.144 Q 620.114 31.458 620.114 34.602 Z M 345 42.415 L 345 16.875 L 353.523 16.875 L 353.523 60.511 L 345.17 60.511 L 345.17 52.955 L 344.716 52.955 A 13.471 13.471 0 0 1 344.424 53.586 Q 342.993 56.485 340.24 58.52 A 16.067 16.067 0 0 1 339.901 58.764 A 11.623 11.623 0 0 1 338.938 59.37 Q 335.9 61.08 331.676 61.08 A 18.696 18.696 0 0 1 331.284 61.075 Q 327.32 60.992 324.247 59.219 Q 321.023 57.358 319.19 53.693 Q 317.41 50.133 317.359 44.939 A 31.364 31.364 0 0 1 317.358 44.631 L 317.358 16.875 L 325.852 16.875 L 325.852 43.608 Q 325.852 47.971 328.218 50.595 A 8.565 8.565 0 0 0 328.324 50.71 Q 330.704 53.254 334.453 53.349 A 11.563 11.563 0 0 0 334.744 53.352 A 9.577 9.577 0 0 0 335.788 53.295 Q 337.478 53.11 339.161 52.325 A 12.878 12.878 0 0 0 339.503 52.159 Q 341.732 51.038 343.259 48.838 A 12.247 12.247 0 0 0 343.452 48.551 Q 345.028 46.136 345 42.415 Z M 128.892 30.966 L 120.625 30.966 A 10.286 10.286 0 0 0 120.508 30.492 Q 119.753 27.725 117.514 25.682 Q 115.085 23.466 111.023 23.466 A 13.28 13.28 0 0 0 110.637 23.471 Q 107.326 23.568 104.815 25.327 A 10.758 10.758 0 0 0 103.747 26.181 Q 101.887 27.873 100.731 30.498 A 16.237 16.237 0 0 0 100.682 30.611 Q 99.227 33.983 99.205 38.555 A 29.201 29.201 0 0 0 99.205 38.693 A 31.045 31.045 0 0 0 99.206 38.99 Q 99.247 43.315 100.499 46.548 A 15.555 15.555 0 0 0 100.653 46.932 Q 101.947 50.027 104.204 51.876 A 10.805 10.805 0 0 0 104.759 52.301 A 10.033 10.033 0 0 0 105.265 52.641 Q 107.753 54.205 111.023 54.205 A 12.76 12.76 0 0 0 111.397 54.199 Q 113.221 54.146 114.786 53.567 A 9.481 9.481 0 0 0 115.412 53.31 A 9.523 9.523 0 0 0 115.836 53.105 Q 117.534 52.231 118.736 50.739 Q 120.085 49.063 120.625 46.705 L 128.892 46.705 A 18.468 18.468 0 0 1 128.828 47.23 Q 128.312 51.009 126.285 54.043 A 16.001 16.001 0 0 1 126.136 54.261 A 15.563 15.563 0 0 1 125.691 54.872 Q 123.612 57.584 120.415 59.27 A 18.548 18.548 0 0 1 119.986 59.489 Q 116.268 61.327 111.317 61.39 A 27.727 27.727 0 0 1 110.966 61.392 A 27.475 27.475 0 0 1 110.572 61.389 Q 105.338 61.314 101.338 59.236 A 17.219 17.219 0 0 1 100.071 58.509 A 19.259 19.259 0 0 1 99.509 58.139 Q 95.359 55.307 93.068 50.54 A 22.558 22.558 0 0 1 92.666 49.655 Q 90.706 45.08 90.628 39.368 A 34.826 34.826 0 0 1 90.625 38.892 Q 90.625 32.244 93.125 27.145 A 22.584 22.584 0 0 1 93.364 26.672 Q 95.78 22.022 99.969 19.305 A 19.343 19.343 0 0 1 100.17 19.176 A 17.524 17.524 0 0 1 102.217 18.067 Q 106.026 16.319 110.813 16.307 A 26.439 26.439 0 0 1 110.881 16.307 Q 115.852 16.307 119.744 18.139 A 18.607 18.607 0 0 1 120.218 18.37 Q 123.727 20.146 125.965 23.169 A 16.063 16.063 0 0 1 126.037 23.267 Q 128.438 26.563 128.892 30.966 Z M 195.17 60.511 L 186.875 60.511 L 186.875 2.33 L 195.369 2.33 L 195.369 23.949 L 195.881 23.949 A 13.483 13.483 0 0 1 195.975 23.778 Q 196.67 22.537 197.886 20.957 A 39.548 39.548 0 0 1 198.011 20.795 A 9.332 9.332 0 0 1 198.259 20.491 Q 199.616 18.89 201.875 17.656 A 8.33 8.33 0 0 1 202.15 17.513 Q 204.536 16.323 208.306 16.307 A 24.265 24.265 0 0 1 208.409 16.307 A 20.602 20.602 0 0 1 208.902 16.313 Q 213.888 16.432 217.841 18.977 Q 221.835 21.549 224.183 26.308 A 23.35 23.35 0 0 1 224.361 26.676 A 20.746 20.746 0 0 1 224.613 27.232 Q 226.707 32.032 226.733 38.614 A 41.968 41.968 0 0 1 226.733 38.778 A 41.874 41.874 0 0 1 226.731 39.219 Q 226.659 46.01 224.375 50.895 Q 222.437 55.038 219.311 57.609 A 16.606 16.606 0 0 1 217.898 58.651 A 16.556 16.556 0 0 1 217.263 59.048 Q 213.376 61.364 208.494 61.364 Q 204.744 61.364 202.294 60.176 A 8.869 8.869 0 0 1 202.003 60.028 A 17.32 17.32 0 0 1 201.712 59.87 Q 199.405 58.588 198.068 56.903 Q 196.648 55.114 195.881 53.722 L 195.17 53.722 L 195.17 60.511 Z M 196.38 46.346 A 16.915 16.915 0 0 0 196.534 46.761 A 16.317 16.317 0 0 0 196.662 47.083 Q 197.771 49.789 199.638 51.529 A 10.564 10.564 0 0 0 200.398 52.173 Q 202.851 54.062 206.375 54.118 A 13.616 13.616 0 0 0 206.591 54.119 A 14.052 14.052 0 0 0 206.828 54.117 Q 210.412 54.057 212.865 52.158 A 8.988 8.988 0 0 0 212.955 52.088 Q 215.511 50.057 216.832 46.563 A 18.252 18.252 0 0 0 217.031 46.011 Q 218.1 42.884 218.151 39.078 A 28.594 28.594 0 0 0 218.153 38.693 A 28.373 28.373 0 0 0 218.15 38.224 Q 218.088 34.482 217.033 31.416 A 17.94 17.94 0 0 0 216.861 30.938 Q 215.568 27.5 212.997 25.511 A 8.912 8.912 0 0 0 211.545 24.597 Q 209.538 23.588 206.929 23.527 A 14.474 14.474 0 0 0 206.591 23.523 A 14.023 14.023 0 0 0 206.247 23.527 Q 202.779 23.612 200.355 25.426 Q 197.813 27.33 196.506 30.739 Q 195.247 34.023 195.201 38.363 A 31.193 31.193 0 0 0 195.199 38.693 Q 195.199 43.023 196.38 46.346 Z M 72.756 31.193 L 72.756 30.994 A 12.922 12.922 0 0 0 72.752 30.706 Q 72.674 27.193 70.668 25.227 Q 68.639 23.24 64.692 23.183 A 16.249 16.249 0 0 0 64.46 23.182 A 19.097 19.097 0 0 0 64.194 23.184 Q 60.205 23.239 57.844 24.973 A 7.379 7.379 0 0 0 57.713 25.071 A 15.009 15.009 0 0 0 57.486 25.249 Q 55.212 27.068 54.318 29.261 L 46.335 27.443 Q 47.652 23.757 50.103 21.376 A 13.485 13.485 0 0 1 50.497 21.009 A 17.283 17.283 0 0 1 51.019 20.559 Q 53.502 18.506 56.635 17.488 A 18.38 18.38 0 0 1 56.818 17.429 A 23.908 23.908 0 0 1 58.373 16.999 Q 61.246 16.307 64.347 16.307 A 22.632 22.632 0 0 1 64.675 16.309 Q 66.991 16.343 69.56 16.849 A 33.499 33.499 0 0 1 69.901 16.918 A 16.808 16.808 0 0 1 70.72 17.109 Q 73.197 17.755 75.403 19.142 A 16.357 16.357 0 0 1 75.412 19.148 A 11.15 11.15 0 0 1 76.493 19.922 Q 78.224 21.326 79.462 23.465 A 15.622 15.622 0 0 1 79.631 23.764 A 10.368 10.368 0 0 1 79.806 24.097 Q 81.278 27.022 81.278 31.534 L 81.278 60.511 L 72.983 60.511 L 72.983 54.545 L 72.642 54.545 Q 71.866 56.097 70.36 57.599 A 16.754 16.754 0 0 1 70.17 57.784 A 10.279 10.279 0 0 1 69.867 58.066 Q 68.377 59.392 66.193 60.32 A 17.936 17.936 0 0 1 65.938 60.426 A 11.68 11.68 0 0 1 65.61 60.553 Q 63.127 61.477 59.744 61.477 A 21.879 21.879 0 0 1 59.293 61.473 Q 55.413 61.393 52.244 59.929 A 14.364 14.364 0 0 1 51.831 59.73 Q 48.811 58.216 46.995 55.5 A 12.814 12.814 0 0 1 46.946 55.426 A 10.672 10.672 0 0 1 46.463 54.618 Q 45.056 52.006 45.002 48.467 A 18.623 18.623 0 0 1 45 48.182 A 18.888 18.888 0 0 1 45.001 47.952 Q 45.044 44.414 46.42 42.102 Q 47.8 39.785 50.116 38.406 A 11.379 11.379 0 0 1 50.256 38.324 A 17.962 17.962 0 0 1 50.868 37.987 Q 53.014 36.858 55.584 36.238 A 23.646 23.646 0 0 1 55.653 36.222 A 52.756 52.756 0 0 1 57.152 35.888 Q 59.047 35.495 60.986 35.236 A 55.035 55.035 0 0 1 61.733 35.142 A 2022.067 2022.067 0 0 0 61.977 35.114 Q 65.677 34.684 68.03 34.397 A 489.586 489.586 0 0 0 68.097 34.389 Q 70.539 34.091 71.647 33.41 A 1.06 1.06 0 0 0 71.648 33.409 A 2.485 2.485 0 0 0 71.812 33.299 Q 72.699 32.65 72.752 31.361 A 4.057 4.057 0 0 0 72.756 31.193 Z M 72.784 44.773 L 72.784 39.148 A 1.392 1.392 0 0 1 72.724 39.204 Q 72.271 39.606 71.15 39.952 A 11.412 11.412 0 0 1 71.037 39.986 A 17.689 17.689 0 0 1 70.874 40.033 Q 69.641 40.386 68.097 40.639 Q 66.449 40.909 64.886 41.122 A 3618.996 3618.996 0 0 1 64.693 41.149 Q 63.292 41.339 62.319 41.471 A 1109.923 1109.923 0 0 1 62.273 41.477 A 25.599 25.599 0 0 0 61.965 41.518 Q 59.674 41.836 57.77 42.528 Q 55.739 43.267 54.531 44.645 Q 53.324 46.023 53.324 48.295 Q 53.324 51.449 55.653 53.054 A 7.905 7.905 0 0 0 56.178 53.386 Q 58.288 54.607 61.33 54.657 A 15.908 15.908 0 0 0 61.591 54.659 A 17.475 17.475 0 0 0 61.919 54.656 Q 65.103 54.596 67.44 53.368 A 9.72 9.72 0 0 0 67.628 53.267 Q 69.538 52.21 70.759 50.652 A 9.219 9.219 0 0 0 71.463 49.616 A 10.301 10.301 0 0 0 71.68 49.226 Q 72.784 47.136 72.784 44.773 Z M 26.193 43.58 L 26.193 2.33 L 34.943 2.33 L 34.943 43.58 A 28.071 28.071 0 0 1 34.941 43.928 Q 34.879 48.92 33.033 52.601 A 15.381 15.381 0 0 1 32.741 53.153 Q 30.581 57.057 26.709 59.141 A 16.085 16.085 0 0 1 26.563 59.219 A 16.396 16.396 0 0 1 25.805 59.592 Q 22.231 61.239 17.624 61.304 A 26.953 26.953 0 0 1 17.244 61.307 Q 12.774 61.307 9.139 59.826 A 18.149 18.149 0 0 1 8.423 59.517 Q 4.614 57.772 2.371 54.472 A 14.728 14.728 0 0 1 2.259 54.304 A 12.477 12.477 0 0 1 1.668 53.312 Q 0 50.19 0 45.966 L 8.722 45.966 Q 8.722 48.381 9.844 50.142 A 7.54 7.54 0 0 0 10.138 50.57 Q 11.213 52.026 12.94 52.884 A 8.638 8.638 0 0 0 13.507 53.14 Q 15.143 53.81 17.148 53.86 A 13.056 13.056 0 0 0 17.472 53.864 A 12.83 12.83 0 0 0 17.774 53.86 Q 20.308 53.8 22.124 52.731 A 7.189 7.189 0 0 0 22.202 52.685 Q 24.148 51.506 25.17 49.205 Q 26.176 46.941 26.193 43.689 A 21.447 21.447 0 0 0 26.193 43.58 Z M 156.01 61.389 Q 150.812 61.314 146.753 59.188 A 17.894 17.894 0 0 1 145.682 58.58 A 19.127 19.127 0 0 1 145.049 58.173 Q 141.132 55.547 138.814 51.167 A 22.273 22.273 0 0 1 138.58 50.71 Q 136.134 45.818 136.054 39.332 A 35.722 35.722 0 0 1 136.051 38.892 A 36.04 36.04 0 0 1 136.054 38.469 Q 136.13 31.943 138.58 27.017 A 22.376 22.376 0 0 1 138.821 26.545 Q 141.263 21.913 145.475 19.248 A 19.108 19.108 0 0 1 145.682 19.119 A 17.911 17.911 0 0 1 147.604 18.093 Q 151.33 16.386 155.961 16.31 A 26.421 26.421 0 0 1 156.392 16.307 A 26.459 26.459 0 0 1 156.774 16.31 Q 161.972 16.385 166.031 18.51 A 17.894 17.894 0 0 1 167.102 19.119 A 18.979 18.979 0 0 1 167.735 19.526 Q 171.854 22.289 174.205 27.017 A 21.491 21.491 0 0 1 174.511 27.659 Q 176.733 32.527 176.733 38.892 A 35.738 35.738 0 0 1 176.73 39.313 Q 176.654 45.811 174.205 50.71 A 22.264 22.264 0 0 1 173.963 51.179 Q 171.575 55.686 167.492 58.334 A 19.202 19.202 0 0 1 167.102 58.58 A 17.911 17.911 0 0 1 165.18 59.606 Q 161.454 61.313 156.823 61.389 A 26.421 26.421 0 0 1 156.392 61.392 A 26.459 26.459 0 0 1 156.01 61.389 Z M 162.923 52.229 A 9.009 9.009 0 0 0 163.011 52.159 Q 165.625 50.057 166.889 46.563 Q 168.153 43.068 168.153 38.864 A 27.183 27.183 0 0 0 168.148 38.344 Q 168.082 34.879 167.128 31.883 A 19.818 19.818 0 0 0 166.889 31.179 Q 165.625 27.67 163.011 25.54 Q 160.414 23.422 156.47 23.409 A 14.788 14.788 0 0 0 156.42 23.409 A 14.821 14.821 0 0 0 156.171 23.411 Q 152.399 23.475 149.876 25.469 A 9.052 9.052 0 0 0 149.787 25.54 A 11.751 11.751 0 0 0 148.999 26.239 Q 147.076 28.108 146.018 30.85 A 15.647 15.647 0 0 0 145.895 31.179 A 19.808 19.808 0 0 0 145.669 31.843 Q 144.693 34.885 144.634 38.412 A 27.235 27.235 0 0 0 144.631 38.864 A 27.537 27.537 0 0 0 144.635 39.378 Q 144.708 43.283 145.895 46.563 A 15.442 15.442 0 0 0 146.037 46.941 Q 147.276 50.104 149.684 52.076 A 11.665 11.665 0 0 0 149.787 52.159 Q 152.415 54.261 156.42 54.261 Q 160.331 54.261 162.923 52.229 Z M 414.29 2.33 L 422.784 2.33 L 422.784 60.511 L 414.29 60.511 L 414.29 2.33 Z M 501.108 2.33 L 509.602 2.33 L 509.602 60.511 L 501.108 60.511 L 501.108 2.33 Z M 442.699 60.511 L 434.205 60.511 L 434.205 16.875 L 442.699 16.875 L 442.699 60.511 Z M 600.199 60.511 L 591.705 60.511 L 591.705 16.875 L 600.199 16.875 L 600.199 60.511 Z M 438.22 10.136 Q 436.18 10.049 434.702 8.651 Q 433.125 7.159 433.125 5.085 Q 433.125 2.983 434.702 1.491 A 6.026 6.026 0 0 1 434.927 1.289 Q 436.434 0 438.494 0 A 6.413 6.413 0 0 1 438.769 0.006 Q 440.809 0.093 442.287 1.491 A 5.984 5.984 0 0 1 442.476 1.679 Q 443.864 3.113 443.864 5.085 Q 443.864 7.062 442.432 8.509 A 6.106 6.106 0 0 1 442.287 8.651 A 6.026 6.026 0 0 1 442.062 8.853 Q 440.554 10.142 438.494 10.142 A 6.413 6.413 0 0 1 438.22 10.136 Z M 595.72 10.136 Q 593.68 10.049 592.202 8.651 Q 590.625 7.159 590.625 5.085 Q 590.625 2.983 592.202 1.491 A 6.026 6.026 0 0 1 592.427 1.289 Q 593.934 0 595.994 0 A 6.413 6.413 0 0 1 596.269 0.006 Q 598.309 0.093 599.787 1.491 A 5.984 5.984 0 0 1 599.976 1.679 Q 601.364 3.113 601.364 5.085 Q 601.364 7.062 599.932 8.509 A 6.106 6.106 0 0 1 599.787 8.651 A 6.026 6.026 0 0 1 599.562 8.853 Q 598.054 10.142 595.994 10.142 A 6.413 6.413 0 0 1 595.72 10.136 Z"/></g></svg>
</svg>
</svg>